<svg xmlns="http://www.w3.org/2000/svg" xmlns:xlink="http://www.w3.org/1999/xlink" width="200" zoomAndPan="magnify" viewBox="0 0 150 37.5" height="50" preserveAspectRatio="xMidYMid meet" version="1.0"><defs><g/><clipPath id="37b4a43d3b"><path d="M 0.0117188 2 L 32 2 L 32 27.5 L 0.0117188 27.5 Z M 0.0117188 2 " clip-rule="nonzero"/></clipPath><clipPath id="d66339276b"><rect x="0" width="142" y="0" height="28"/></clipPath></defs><g transform="matrix(1, 0, 0, 1, 5, 4)"><g clip-path="url(#d66339276b)"><g clip-path="url(#37b4a43d3b)"><path fill="#00ae55" d="M 17.917969 2.089844 L 25.390625 2.089844 C 26.203125 2.09375 26.945312 2.074219 27.746094 2.277344 C 28.605469 2.5 29.390625 2.945312 30.023438 3.570312 C 31.125 4.660156 31.523438 5.964844 31.527344 7.488281 L 31.527344 17.660156 C 31.527344 18.554688 31.566406 19.367188 31.371094 20.257812 C 31.058594 21.691406 29.800781 22.957031 28.339844 23.207031 C 27.453125 23.359375 26.398438 23.339844 25.492188 23.339844 L 22.191406 23.34375 L 9.785156 23.339844 L 8.753906 23.34375 C 8.511719 23.34375 8.070312 23.332031 7.847656 23.394531 C 7.589844 23.460938 7.339844 23.558594 7.101562 23.679688 C 6.472656 24.007812 5.765625 24.511719 5.167969 24.917969 C 4.347656 25.472656 3.519531 26.023438 2.691406 26.570312 C 2.328125 26.804688 1.984375 27.0625 1.601562 27.269531 C 1.101562 27.539062 0.363281 27.238281 0.207031 26.683594 C 0.171875 26.558594 0.175781 26.371094 0.179688 26.238281 C 0.183594 25.777344 0.175781 25.320312 0.171875 24.859375 L 0.164062 12.125 L 0.160156 8.539062 C 0.160156 8.007812 0.164062 7.488281 0.183594 6.953125 C 0.226562 5.703125 0.710938 4.503906 1.605469 3.609375 C 2.304688 2.90625 3.191406 2.421875 4.160156 2.214844 C 4.871094 2.0625 5.75 2.09375 6.484375 2.09375 L 8.984375 2.09375 Z M 17.917969 2.089844 " fill-opacity="1" fill-rule="nonzero"/></g><path fill="#fefffe" d="M 8.289062 12.171875 C 8.5625 12.144531 8.9375 12.164062 9.222656 12.164062 L 22.585938 12.164062 C 22.753906 12.164062 22.921875 12.164062 23.089844 12.164062 C 23.457031 12.160156 23.855469 12.1875 24.136719 12.457031 C 24.535156 12.832031 24.574219 13.550781 24.179688 13.945312 C 23.933594 14.191406 23.734375 14.230469 23.402344 14.234375 L 12.90625 14.238281 L 8.640625 14.238281 C 8.449219 14.238281 8.234375 14.246094 8.050781 14.230469 C 7.617188 14.183594 7.265625 13.769531 7.230469 13.34375 C 7.171875 12.625 7.601562 12.234375 8.289062 12.171875 Z M 8.289062 12.171875 " fill-opacity="1" fill-rule="nonzero"/><path fill="#fefffe" d="M 8.175781 8.164062 C 8.476562 8.152344 8.824219 8.160156 9.132812 8.160156 L 21.394531 8.160156 L 22.757812 8.15625 C 23.011719 8.15625 23.265625 8.15625 23.519531 8.164062 C 24.496094 8.199219 24.804688 9.519531 24.007812 10.03125 C 23.820312 10.148438 23.644531 10.183594 23.429688 10.214844 C 23.226562 10.242188 22.886719 10.226562 22.664062 10.226562 L 16.523438 10.226562 L 11.136719 10.230469 L 9.300781 10.234375 C 8.785156 10.234375 8.019531 10.3125 7.605469 9.980469 C 7.394531 9.816406 7.261719 9.570312 7.234375 9.304688 C 7.167969 8.675781 7.542969 8.210938 8.175781 8.164062 Z M 8.175781 8.164062 " fill-opacity="1" fill-rule="nonzero"/><path fill="#fefffe" d="M 10.316406 16.21875 C 11.742188 16.210938 13.167969 16.207031 14.597656 16.214844 L 15.773438 16.21875 C 16.003906 16.21875 16.359375 16.203125 16.578125 16.25 C 17.375 16.410156 17.660156 17.441406 17.085938 18.011719 C 16.957031 18.140625 16.796875 18.230469 16.621094 18.273438 C 16.378906 18.332031 15.914062 18.316406 15.652344 18.316406 L 14.3125 18.316406 L 10.054688 18.320312 L 8.855469 18.320312 C 8.269531 18.320312 7.699219 18.386719 7.351562 17.800781 C 7.132812 17.429688 7.183594 16.847656 7.484375 16.539062 C 7.613281 16.410156 7.777344 16.316406 7.957031 16.269531 C 8.203125 16.207031 8.613281 16.226562 8.878906 16.222656 Z M 10.316406 16.21875 " fill-opacity="1" fill-rule="nonzero"/><g fill="#00ae55" fill-opacity="1"><g transform="translate(37.688996, 20.056302)"><g><path d="M 0.578125 0.25 C 0.429688 0.0703125 0.359375 -0.144531 0.359375 -0.40625 L 0.359375 -0.453125 C 0.390625 -0.847656 0.535156 -1.117188 0.796875 -1.265625 C 0.953125 -1.347656 1.171875 -1.390625 1.453125 -1.390625 C 1.753906 -1.390625 1.957031 -1.425781 2.0625 -1.5 C 2.164062 -1.570312 2.222656 -1.660156 2.234375 -1.765625 C 2.273438 -1.953125 2.300781 -2.203125 2.3125 -2.515625 L 2.3125 -11.03125 C 2.300781 -11.34375 2.273438 -11.59375 2.234375 -11.78125 C 2.234375 -11.8125 2.222656 -11.84375 2.203125 -11.875 C 2.191406 -11.90625 2.175781 -11.929688 2.15625 -11.953125 C 2.132812 -11.984375 2.101562 -12.003906 2.0625 -12.015625 C 1.957031 -12.109375 1.753906 -12.15625 1.453125 -12.15625 L 1.328125 -12.15625 C 1.054688 -12.15625 0.84375 -12.21875 0.6875 -12.34375 C 0.601562 -12.414062 0.535156 -12.503906 0.484375 -12.609375 C 0.429688 -12.722656 0.398438 -12.800781 0.390625 -12.84375 C 0.390625 -12.894531 0.378906 -12.976562 0.359375 -13.09375 L 0.359375 -13.140625 C 0.359375 -13.398438 0.429688 -13.617188 0.578125 -13.796875 C 0.765625 -14.023438 1 -14.140625 1.28125 -14.140625 L 1.3125 -14.140625 C 1.625 -14.128906 1.921875 -14.117188 2.203125 -14.109375 C 2.492188 -14.109375 2.78125 -14.101562 3.0625 -14.09375 C 3.34375 -14.082031 3.609375 -14.078125 3.859375 -14.078125 L 7.078125 -14.078125 C 8.398438 -14.078125 9.679688 -13.804688 10.921875 -13.265625 C 11.597656 -12.960938 12.109375 -12.503906 12.453125 -11.890625 C 12.804688 -11.273438 12.984375 -10.539062 12.984375 -9.6875 C 12.984375 -8.707031 12.691406 -7.832031 12.109375 -7.0625 C 11.535156 -6.320312 10.796875 -5.742188 9.890625 -5.328125 C 8.992188 -4.921875 8.066406 -4.71875 7.109375 -4.71875 C 6.535156 -4.71875 6 -4.773438 5.5 -4.890625 L 5.5 -2.515625 C 5.507812 -2.335938 5.515625 -2.1875 5.515625 -2.0625 C 5.523438 -1.945312 5.546875 -1.847656 5.578125 -1.765625 C 5.597656 -1.722656 5.617188 -1.675781 5.640625 -1.625 C 5.660156 -1.582031 5.695312 -1.539062 5.75 -1.5 C 5.851562 -1.425781 6.054688 -1.390625 6.359375 -1.390625 L 6.484375 -1.390625 C 6.609375 -1.390625 6.722656 -1.378906 6.828125 -1.359375 C 6.929688 -1.335938 7.03125 -1.285156 7.125 -1.203125 C 7.3125 -1.054688 7.421875 -0.804688 7.453125 -0.453125 L 7.453125 -0.40625 C 7.453125 -0.164062 7.382812 0.046875 7.25 0.234375 C 7.195312 0.304688 7.128906 0.367188 7.046875 0.421875 C 6.972656 0.484375 6.890625 0.523438 6.796875 0.546875 C 6.703125 0.578125 6.613281 0.59375 6.53125 0.59375 L 6.5 0.59375 C 5.582031 0.550781 4.695312 0.53125 3.84375 0.53125 C 3.082031 0.53125 2.238281 0.550781 1.3125 0.59375 L 1.28125 0.59375 C 1 0.59375 0.765625 0.476562 0.578125 0.25 Z M 7.90625 -7.046875 C 8.039062 -7.097656 8.175781 -7.164062 8.3125 -7.25 C 8.445312 -7.34375 8.578125 -7.441406 8.703125 -7.546875 C 8.828125 -7.648438 8.945312 -7.78125 9.0625 -7.9375 C 9.21875 -8.144531 9.332031 -8.382812 9.40625 -8.65625 C 9.488281 -8.925781 9.53125 -9.25 9.53125 -9.625 C 9.53125 -10.664062 9.226562 -11.34375 8.625 -11.65625 C 7.894531 -12.03125 7.125 -12.21875 6.3125 -12.21875 C 6.15625 -12.21875 6.019531 -12.207031 5.90625 -12.1875 C 5.800781 -12.175781 5.726562 -12.15625 5.6875 -12.125 C 5.644531 -12.113281 5.609375 -12.070312 5.578125 -12 C 5.523438 -11.832031 5.5 -11.53125 5.5 -11.09375 L 5.5 -6.84375 C 5.75 -6.789062 6.078125 -6.765625 6.484375 -6.765625 C 6.929688 -6.765625 7.40625 -6.859375 7.90625 -7.046875 Z M 7.90625 -7.046875 "/></g></g></g><g fill="#00ae55" fill-opacity="1"><g transform="translate(50.895261, 20.056302)"><g><path d="M 1.15625 -0.078125 C 0.507812 -0.671875 0.1875 -1.410156 0.1875 -2.296875 C 0.1875 -3.378906 0.5625 -4.203125 1.3125 -4.765625 C 1.976562 -5.265625 2.769531 -5.585938 3.6875 -5.734375 C 4.414062 -5.859375 5.34375 -5.957031 6.46875 -6.03125 L 6.46875 -7.21875 C 6.46875 -7.519531 6.429688 -7.765625 6.359375 -7.953125 C 6.296875 -8.148438 6.203125 -8.3125 6.078125 -8.4375 C 5.972656 -8.550781 5.8125 -8.644531 5.59375 -8.71875 C 5.382812 -8.789062 5.113281 -8.828125 4.78125 -8.828125 C 4.664062 -8.828125 4.5625 -8.816406 4.46875 -8.796875 C 4.382812 -8.773438 4.296875 -8.738281 4.203125 -8.6875 C 4.117188 -8.644531 4.039062 -8.597656 3.96875 -8.546875 C 3.875 -8.460938 3.800781 -8.363281 3.75 -8.25 C 3.695312 -8.144531 3.671875 -8.015625 3.671875 -7.859375 C 3.671875 -7.742188 3.691406 -7.65625 3.734375 -7.59375 C 3.804688 -7.476562 3.882812 -7.390625 3.96875 -7.328125 C 3.988281 -7.328125 4.019531 -7.316406 4.0625 -7.296875 C 4.113281 -7.285156 4.15625 -7.265625 4.1875 -7.234375 C 4.226562 -7.203125 4.265625 -7.144531 4.296875 -7.0625 C 4.335938 -6.976562 4.359375 -6.867188 4.359375 -6.734375 C 4.359375 -6.609375 4.328125 -6.488281 4.265625 -6.375 C 4.203125 -6.257812 4.144531 -6.179688 4.09375 -6.140625 C 4.050781 -6.109375 3.984375 -6.054688 3.890625 -5.984375 C 3.597656 -5.773438 3.265625 -5.671875 2.890625 -5.671875 C 2.296875 -5.671875 1.816406 -5.890625 1.453125 -6.328125 C 1.128906 -6.742188 0.96875 -7.234375 0.96875 -7.796875 C 0.96875 -8.753906 1.394531 -9.460938 2.25 -9.921875 C 3 -10.316406 3.890625 -10.515625 4.921875 -10.515625 C 5.328125 -10.515625 5.71875 -10.488281 6.09375 -10.4375 C 6.46875 -10.394531 6.816406 -10.316406 7.140625 -10.203125 C 7.472656 -10.085938 7.773438 -9.941406 8.046875 -9.765625 C 8.359375 -9.578125 8.617188 -9.335938 8.828125 -9.046875 C 9.035156 -8.753906 9.1875 -8.425781 9.28125 -8.0625 C 9.375 -7.695312 9.421875 -7.289062 9.421875 -6.84375 L 9.421875 -1.875 C 9.421875 -1.8125 9.425781 -1.753906 9.4375 -1.703125 C 9.445312 -1.648438 9.460938 -1.601562 9.484375 -1.5625 C 9.503906 -1.519531 9.523438 -1.472656 9.546875 -1.421875 C 9.566406 -1.378906 9.59375 -1.328125 9.625 -1.265625 C 9.664062 -1.210938 9.707031 -1.171875 9.75 -1.140625 C 9.800781 -1.117188 9.882812 -1.109375 10 -1.109375 C 10.25 -1.109375 10.453125 -1.046875 10.609375 -0.921875 C 10.773438 -0.765625 10.859375 -0.535156 10.859375 -0.234375 C 10.859375 0.203125 10.601562 0.492188 10.09375 0.640625 C 9.78125 0.742188 9.460938 0.796875 9.140625 0.796875 C 8.484375 0.796875 7.898438 0.601562 7.390625 0.21875 C 7.160156 0.0390625 6.972656 -0.160156 6.828125 -0.390625 C 6.753906 -0.316406 6.675781 -0.242188 6.59375 -0.171875 C 6.519531 -0.109375 6.441406 -0.0507812 6.359375 0 C 6.285156 0.0507812 6.203125 0.0976562 6.109375 0.140625 C 6.023438 0.191406 5.9375 0.242188 5.84375 0.296875 C 5.15625 0.628906 4.410156 0.796875 3.609375 0.796875 C 2.609375 0.796875 1.789062 0.503906 1.15625 -0.078125 Z M 5.359375 -1.734375 C 5.453125 -1.773438 5.535156 -1.820312 5.609375 -1.875 C 5.691406 -1.9375 5.765625 -2 5.828125 -2.0625 C 5.890625 -2.132812 5.945312 -2.207031 6 -2.28125 C 6.0625 -2.363281 6.113281 -2.445312 6.15625 -2.53125 C 6.363281 -2.875 6.46875 -3.253906 6.46875 -3.671875 L 6.46875 -4.3125 C 5.34375 -4.1875 4.550781 -3.988281 4.09375 -3.71875 C 3.65625 -3.445312 3.4375 -2.992188 3.4375 -2.359375 C 3.4375 -1.984375 3.492188 -1.734375 3.609375 -1.609375 C 3.734375 -1.492188 3.960938 -1.4375 4.296875 -1.4375 C 4.492188 -1.4375 4.679688 -1.460938 4.859375 -1.515625 C 5.035156 -1.566406 5.203125 -1.640625 5.359375 -1.734375 Z M 5.359375 -1.734375 "/></g></g></g><g fill="#00ae55" fill-opacity="1"><g transform="translate(62.190375, 20.056302)"><g><path d="M 3.75 0.515625 C 3.78125 0.554688 3.800781 0.59375 3.8125 0.625 C 3.832031 0.65625 3.851562 0.703125 3.875 0.765625 C 3.894531 0.828125 3.90625 0.882812 3.90625 0.9375 C 3.90625 1.070312 3.890625 1.175781 3.859375 1.25 C 3.835938 1.332031 3.804688 1.382812 3.765625 1.40625 C 3.734375 1.425781 3.691406 1.445312 3.640625 1.46875 C 3.597656 1.488281 3.570312 1.507812 3.5625 1.53125 C 3.476562 1.613281 3.40625 1.71875 3.34375 1.84375 C 3.289062 1.945312 3.265625 2.078125 3.265625 2.234375 C 3.265625 2.972656 4.03125 3.34375 5.5625 3.34375 C 5.675781 3.34375 5.785156 3.335938 5.890625 3.328125 C 5.992188 3.328125 6.097656 3.328125 6.203125 3.328125 C 6.878906 3.265625 7.398438 3.113281 7.765625 2.875 C 8.203125 2.59375 8.421875 2.175781 8.421875 1.625 C 8.421875 1.570312 8.414062 1.519531 8.40625 1.46875 C 8.394531 1.414062 8.378906 1.367188 8.359375 1.328125 C 8.347656 1.285156 8.332031 1.242188 8.3125 1.203125 C 8.289062 1.171875 8.265625 1.144531 8.234375 1.125 C 8.210938 1.101562 8.179688 1.078125 8.140625 1.046875 C 8.003906 0.960938 7.847656 0.890625 7.671875 0.828125 C 7.492188 0.765625 7.296875 0.71875 7.078125 0.6875 C 6.953125 0.675781 6.816406 0.664062 6.671875 0.65625 C 6.535156 0.644531 6.382812 0.628906 6.21875 0.609375 C 6.0625 0.597656 5.890625 0.585938 5.703125 0.578125 C 5.523438 0.578125 5.328125 0.578125 5.109375 0.578125 C 4.597656 0.566406 4.144531 0.546875 3.75 0.515625 Z M 1.484375 -0.109375 C 1.421875 -0.148438 1.363281 -0.191406 1.3125 -0.234375 C 0.882812 -0.585938 0.671875 -1.125 0.671875 -1.84375 C 0.671875 -2.5625 0.921875 -3.164062 1.421875 -3.65625 C 1.578125 -3.789062 1.753906 -3.914062 1.953125 -4.03125 C 1.804688 -4.132812 1.675781 -4.242188 1.5625 -4.359375 C 1.445312 -4.484375 1.34375 -4.613281 1.25 -4.75 C 0.84375 -5.332031 0.640625 -5.988281 0.640625 -6.71875 C 0.640625 -7.445312 0.847656 -8.101562 1.265625 -8.6875 C 1.460938 -8.988281 1.703125 -9.253906 1.984375 -9.484375 C 2.273438 -9.710938 2.601562 -9.90625 2.96875 -10.0625 C 3.664062 -10.382812 4.453125 -10.546875 5.328125 -10.546875 C 6.335938 -10.546875 7.148438 -10.410156 7.765625 -10.140625 L 8.625 -10.3125 L 10.546875 -10.671875 L 10.6875 -10.671875 C 10.976562 -10.671875 11.203125 -10.554688 11.359375 -10.328125 C 11.515625 -10.109375 11.59375 -9.875 11.59375 -9.625 C 11.59375 -9.550781 11.585938 -9.484375 11.578125 -9.421875 C 11.578125 -9.367188 11.570312 -9.304688 11.5625 -9.234375 C 11.550781 -9.171875 11.535156 -9.109375 11.515625 -9.046875 C 11.492188 -8.984375 11.476562 -8.921875 11.46875 -8.859375 C 11.425781 -8.765625 11.382812 -8.679688 11.34375 -8.609375 C 11.3125 -8.546875 11.238281 -8.472656 11.125 -8.390625 C 11.007812 -8.304688 10.875 -8.265625 10.71875 -8.265625 L 9.625 -8.3125 C 9.664062 -8.238281 9.695312 -8.164062 9.71875 -8.09375 C 9.925781 -7.625 10.03125 -7.171875 10.03125 -6.734375 C 10.03125 -5.960938 9.804688 -5.28125 9.359375 -4.6875 C 9.128906 -4.382812 8.867188 -4.117188 8.578125 -3.890625 C 8.296875 -3.671875 7.984375 -3.484375 7.640625 -3.328125 C 6.953125 -3.023438 6.238281 -2.875 5.5 -2.875 L 4.546875 -2.875 C 4.015625 -2.875 3.609375 -2.835938 3.328125 -2.765625 C 3.253906 -2.734375 3.191406 -2.710938 3.140625 -2.703125 C 3.023438 -2.648438 2.96875 -2.578125 2.96875 -2.484375 C 2.96875 -2.398438 2.976562 -2.351562 3 -2.34375 C 3.101562 -2.269531 3.332031 -2.21875 3.6875 -2.1875 L 6.640625 -2.078125 C 8.234375 -2.023438 9.40625 -1.757812 10.15625 -1.28125 C 10.988281 -0.757812 11.40625 0.03125 11.40625 1.09375 C 11.40625 2.40625 10.796875 3.4375 9.578125 4.1875 C 9.160156 4.425781 8.703125 4.625 8.203125 4.78125 C 7.710938 4.945312 7.175781 5.0625 6.59375 5.125 C 6.363281 5.15625 6.125 5.175781 5.875 5.1875 C 5.625 5.207031 5.367188 5.21875 5.109375 5.21875 C 3.515625 5.21875 2.269531 4.960938 1.375 4.453125 C 0.488281 3.941406 0.046875 3.160156 0.046875 2.109375 C 0.046875 1.492188 0.242188 0.957031 0.640625 0.5 C 0.753906 0.351562 0.882812 0.226562 1.03125 0.125 C 1.175781 0.03125 1.328125 -0.046875 1.484375 -0.109375 Z M 6.53125 -5.109375 C 6.644531 -5.222656 6.734375 -5.359375 6.796875 -5.515625 C 6.867188 -5.671875 6.921875 -5.851562 6.953125 -6.0625 C 6.992188 -6.269531 7.015625 -6.492188 7.015625 -6.734375 C 7.015625 -7.378906 6.851562 -7.890625 6.53125 -8.265625 C 6.207031 -8.617188 5.796875 -8.796875 5.296875 -8.796875 C 5.128906 -8.796875 4.972656 -8.773438 4.828125 -8.734375 C 4.679688 -8.703125 4.550781 -8.644531 4.4375 -8.5625 C 4.320312 -8.488281 4.210938 -8.394531 4.109375 -8.28125 C 4.003906 -8.164062 3.914062 -8.035156 3.84375 -7.890625 C 3.769531 -7.753906 3.710938 -7.59375 3.671875 -7.40625 C 3.640625 -7.21875 3.625 -7.007812 3.625 -6.78125 C 3.625 -6.050781 3.789062 -5.492188 4.125 -5.109375 C 4.4375 -4.753906 4.835938 -4.578125 5.328125 -4.578125 C 5.828125 -4.578125 6.226562 -4.753906 6.53125 -5.109375 Z M 6.53125 -5.109375 "/></g></g></g><g fill="#00ae55" fill-opacity="1"><g transform="translate(73.957905, 20.056302)"><g><path d="M 1.15625 -0.078125 C 0.507812 -0.671875 0.1875 -1.410156 0.1875 -2.296875 C 0.1875 -3.378906 0.5625 -4.203125 1.3125 -4.765625 C 1.976562 -5.265625 2.769531 -5.585938 3.6875 -5.734375 C 4.414062 -5.859375 5.34375 -5.957031 6.46875 -6.03125 L 6.46875 -7.21875 C 6.46875 -7.519531 6.429688 -7.765625 6.359375 -7.953125 C 6.296875 -8.148438 6.203125 -8.3125 6.078125 -8.4375 C 5.972656 -8.550781 5.8125 -8.644531 5.59375 -8.71875 C 5.382812 -8.789062 5.113281 -8.828125 4.78125 -8.828125 C 4.664062 -8.828125 4.5625 -8.816406 4.46875 -8.796875 C 4.382812 -8.773438 4.296875 -8.738281 4.203125 -8.6875 C 4.117188 -8.644531 4.039062 -8.597656 3.96875 -8.546875 C 3.875 -8.460938 3.800781 -8.363281 3.75 -8.25 C 3.695312 -8.144531 3.671875 -8.015625 3.671875 -7.859375 C 3.671875 -7.742188 3.691406 -7.65625 3.734375 -7.59375 C 3.804688 -7.476562 3.882812 -7.390625 3.96875 -7.328125 C 3.988281 -7.328125 4.019531 -7.316406 4.0625 -7.296875 C 4.113281 -7.285156 4.15625 -7.265625 4.1875 -7.234375 C 4.226562 -7.203125 4.265625 -7.144531 4.296875 -7.0625 C 4.335938 -6.976562 4.359375 -6.867188 4.359375 -6.734375 C 4.359375 -6.609375 4.328125 -6.488281 4.265625 -6.375 C 4.203125 -6.257812 4.144531 -6.179688 4.09375 -6.140625 C 4.050781 -6.109375 3.984375 -6.054688 3.890625 -5.984375 C 3.597656 -5.773438 3.265625 -5.671875 2.890625 -5.671875 C 2.296875 -5.671875 1.816406 -5.890625 1.453125 -6.328125 C 1.128906 -6.742188 0.96875 -7.234375 0.96875 -7.796875 C 0.96875 -8.753906 1.394531 -9.460938 2.25 -9.921875 C 3 -10.316406 3.890625 -10.515625 4.921875 -10.515625 C 5.328125 -10.515625 5.71875 -10.488281 6.09375 -10.4375 C 6.46875 -10.394531 6.816406 -10.316406 7.140625 -10.203125 C 7.472656 -10.085938 7.773438 -9.941406 8.046875 -9.765625 C 8.359375 -9.578125 8.617188 -9.335938 8.828125 -9.046875 C 9.035156 -8.753906 9.1875 -8.425781 9.28125 -8.0625 C 9.375 -7.695312 9.421875 -7.289062 9.421875 -6.84375 L 9.421875 -1.875 C 9.421875 -1.8125 9.425781 -1.753906 9.4375 -1.703125 C 9.445312 -1.648438 9.460938 -1.601562 9.484375 -1.5625 C 9.503906 -1.519531 9.523438 -1.472656 9.546875 -1.421875 C 9.566406 -1.378906 9.59375 -1.328125 9.625 -1.265625 C 9.664062 -1.210938 9.707031 -1.171875 9.75 -1.140625 C 9.800781 -1.117188 9.882812 -1.109375 10 -1.109375 C 10.25 -1.109375 10.453125 -1.046875 10.609375 -0.921875 C 10.773438 -0.765625 10.859375 -0.535156 10.859375 -0.234375 C 10.859375 0.203125 10.601562 0.492188 10.09375 0.640625 C 9.78125 0.742188 9.460938 0.796875 9.140625 0.796875 C 8.484375 0.796875 7.898438 0.601562 7.390625 0.21875 C 7.160156 0.0390625 6.972656 -0.160156 6.828125 -0.390625 C 6.753906 -0.316406 6.675781 -0.242188 6.59375 -0.171875 C 6.519531 -0.109375 6.441406 -0.0507812 6.359375 0 C 6.285156 0.0507812 6.203125 0.0976562 6.109375 0.140625 C 6.023438 0.191406 5.9375 0.242188 5.84375 0.296875 C 5.15625 0.628906 4.410156 0.796875 3.609375 0.796875 C 2.609375 0.796875 1.789062 0.503906 1.15625 -0.078125 Z M 5.359375 -1.734375 C 5.453125 -1.773438 5.535156 -1.820312 5.609375 -1.875 C 5.691406 -1.9375 5.765625 -2 5.828125 -2.0625 C 5.890625 -2.132812 5.945312 -2.207031 6 -2.28125 C 6.0625 -2.363281 6.113281 -2.445312 6.15625 -2.53125 C 6.363281 -2.875 6.46875 -3.253906 6.46875 -3.671875 L 6.46875 -4.3125 C 5.34375 -4.1875 4.550781 -3.988281 4.09375 -3.71875 C 3.65625 -3.445312 3.4375 -2.992188 3.4375 -2.359375 C 3.4375 -1.984375 3.492188 -1.734375 3.609375 -1.609375 C 3.734375 -1.492188 3.960938 -1.4375 4.296875 -1.4375 C 4.492188 -1.4375 4.679688 -1.460938 4.859375 -1.515625 C 5.035156 -1.566406 5.203125 -1.640625 5.359375 -1.734375 Z M 5.359375 -1.734375 "/></g></g></g><g fill="#00ae55" fill-opacity="1"><g transform="translate(85.14565, 20.056302)"><g><path d="M 0.390625 0.25 C 0.242188 0.0703125 0.171875 -0.128906 0.171875 -0.359375 L 0.171875 -0.40625 C 0.171875 -0.40625 0.171875 -0.410156 0.171875 -0.421875 C 0.203125 -0.796875 0.34375 -1.050781 0.59375 -1.1875 C 0.738281 -1.25 0.945312 -1.28125 1.21875 -1.28125 C 1.46875 -1.28125 1.617188 -1.304688 1.671875 -1.359375 C 1.710938 -1.398438 1.742188 -1.429688 1.765625 -1.453125 C 1.773438 -1.617188 1.78125 -1.875 1.78125 -2.21875 L 1.78125 -7.125 C 1.78125 -7.46875 1.773438 -7.71875 1.765625 -7.875 C 1.742188 -7.90625 1.710938 -7.941406 1.671875 -7.984375 C 1.617188 -8.023438 1.46875 -8.046875 1.21875 -8.046875 C 0.945312 -8.046875 0.726562 -8.097656 0.5625 -8.203125 C 0.300781 -8.359375 0.171875 -8.628906 0.171875 -9.015625 C 0.171875 -9.210938 0.234375 -9.398438 0.359375 -9.578125 C 0.503906 -9.773438 0.710938 -9.894531 0.984375 -9.9375 C 1.410156 -10 1.8125 -10.078125 2.1875 -10.171875 C 2.5625 -10.265625 2.882812 -10.359375 3.15625 -10.453125 L 3.171875 -10.484375 L 3.203125 -10.484375 C 3.453125 -10.546875 3.632812 -10.59375 3.75 -10.625 L 3.90625 -10.625 C 4.164062 -10.625 4.375 -10.523438 4.53125 -10.328125 C 4.695312 -10.140625 4.78125 -9.925781 4.78125 -9.6875 L 4.78125 -9.484375 C 5.039062 -9.691406 5.304688 -9.863281 5.578125 -10 C 5.765625 -10.113281 5.953125 -10.207031 6.140625 -10.28125 C 6.328125 -10.351562 6.515625 -10.410156 6.703125 -10.453125 C 6.890625 -10.492188 7.066406 -10.515625 7.234375 -10.515625 C 7.429688 -10.515625 7.625 -10.484375 7.8125 -10.421875 C 8.007812 -10.367188 8.1875 -10.289062 8.34375 -10.1875 C 8.507812 -10.082031 8.65625 -9.953125 8.78125 -9.796875 C 8.945312 -9.578125 9.078125 -9.332031 9.171875 -9.0625 C 9.265625 -8.800781 9.3125 -8.53125 9.3125 -8.25 C 9.3125 -7.71875 9.15625 -7.25 8.84375 -6.84375 C 8.488281 -6.382812 8.007812 -6.15625 7.40625 -6.15625 C 7.300781 -6.15625 7.207031 -6.160156 7.125 -6.171875 C 7.039062 -6.191406 6.953125 -6.21875 6.859375 -6.25 C 6.773438 -6.28125 6.691406 -6.316406 6.609375 -6.359375 C 6.609375 -6.367188 6.582031 -6.382812 6.53125 -6.40625 C 6.488281 -6.425781 6.453125 -6.441406 6.421875 -6.453125 C 6.398438 -6.472656 6.375 -6.492188 6.34375 -6.515625 C 6.3125 -6.546875 6.28125 -6.578125 6.25 -6.609375 C 6.21875 -6.648438 6.191406 -6.695312 6.171875 -6.75 C 6.148438 -6.800781 6.132812 -6.851562 6.125 -6.90625 L 6.078125 -7.109375 L 6.15625 -7.28125 C 6.175781 -7.320312 6.195312 -7.359375 6.21875 -7.390625 C 6.238281 -7.429688 6.253906 -7.457031 6.265625 -7.46875 C 6.285156 -7.488281 6.3125 -7.519531 6.34375 -7.5625 C 6.375 -7.601562 6.40625 -7.632812 6.4375 -7.65625 C 6.46875 -7.6875 6.484375 -7.710938 6.484375 -7.734375 C 6.492188 -7.753906 6.5 -7.789062 6.5 -7.84375 C 6.5 -7.894531 6.492188 -7.9375 6.484375 -7.96875 C 6.484375 -8.007812 6.476562 -8.035156 6.46875 -8.046875 C 6.46875 -8.066406 6.457031 -8.085938 6.4375 -8.109375 C 6.382812 -8.140625 6.335938 -8.15625 6.296875 -8.15625 C 6.148438 -8.15625 5.929688 -8.0625 5.640625 -7.875 C 5.585938 -7.851562 5.535156 -7.816406 5.484375 -7.765625 C 5.429688 -7.722656 5.375 -7.679688 5.3125 -7.640625 C 5.257812 -7.597656 5.203125 -7.554688 5.140625 -7.515625 C 5.085938 -7.472656 5.03125 -7.425781 4.96875 -7.375 C 4.914062 -7.320312 4.863281 -7.269531 4.8125 -7.21875 L 4.8125 -2.21875 C 4.8125 -1.875 4.828125 -1.628906 4.859375 -1.484375 C 4.859375 -1.453125 4.882812 -1.410156 4.9375 -1.359375 C 4.9375 -1.359375 4.953125 -1.351562 4.984375 -1.34375 C 5.015625 -1.332031 5.0625 -1.316406 5.125 -1.296875 C 5.195312 -1.285156 5.285156 -1.28125 5.390625 -1.28125 L 5.515625 -1.28125 C 5.742188 -1.28125 5.9375 -1.222656 6.09375 -1.109375 C 6.28125 -0.972656 6.390625 -0.738281 6.421875 -0.40625 L 6.421875 -0.359375 C 6.421875 -0.304688 6.414062 -0.253906 6.40625 -0.203125 C 6.394531 -0.148438 6.382812 -0.0976562 6.375 -0.046875 C 6.363281 -0.00390625 6.347656 0.0390625 6.328125 0.09375 C 6.304688 0.144531 6.28125 0.191406 6.25 0.234375 C 6.1875 0.304688 6.113281 0.367188 6.03125 0.421875 C 5.957031 0.484375 5.878906 0.523438 5.796875 0.546875 C 5.710938 0.578125 5.625 0.59375 5.53125 0.59375 L 5.515625 0.59375 C 4.679688 0.550781 3.9375 0.53125 3.28125 0.53125 C 2.96875 0.53125 2.625 0.535156 2.25 0.546875 C 1.882812 0.554688 1.492188 0.570312 1.078125 0.59375 L 1.046875 0.59375 C 0.773438 0.59375 0.554688 0.476562 0.390625 0.25 Z M 0.390625 0.25 "/></g></g></g><g fill="#00ae55" fill-opacity="1"><g transform="translate(94.808767, 20.056302)"><g/></g></g><g fill="#00ae55" fill-opacity="1"><g transform="translate(100.134226, 20.056302)"><g><path d="M 8.25 0.109375 L 4.40625 -8.609375 L 4.40625 -7.015625 L 4.421875 -2.53125 C 4.429688 -2.175781 4.453125 -1.910156 4.484375 -1.734375 C 4.523438 -1.640625 4.582031 -1.5625 4.65625 -1.5 C 4.757812 -1.425781 4.953125 -1.390625 5.234375 -1.390625 L 5.359375 -1.390625 C 5.492188 -1.390625 5.609375 -1.378906 5.703125 -1.359375 C 5.804688 -1.335938 5.910156 -1.285156 6.015625 -1.203125 C 6.203125 -1.054688 6.304688 -0.804688 6.328125 -0.453125 L 6.328125 -0.40625 C 6.328125 -0.164062 6.265625 0.046875 6.140625 0.234375 C 6.054688 0.347656 5.945312 0.4375 5.8125 0.5 C 5.6875 0.5625 5.550781 0.59375 5.40625 0.59375 L 4.859375 0.578125 C 4.191406 0.546875 3.722656 0.53125 3.453125 0.53125 C 2.984375 0.53125 2.285156 0.550781 1.359375 0.59375 L 1.328125 0.59375 C 1.015625 0.59375 0.769531 0.472656 0.59375 0.234375 C 0.53125 0.128906 0.484375 0.0234375 0.453125 -0.078125 C 0.421875 -0.179688 0.40625 -0.289062 0.40625 -0.40625 L 0.40625 -0.453125 C 0.40625 -0.453125 0.40625 -0.46875 0.40625 -0.5 C 0.4375 -0.863281 0.566406 -1.113281 0.796875 -1.25 C 0.953125 -1.34375 1.179688 -1.390625 1.484375 -1.390625 C 1.640625 -1.390625 1.765625 -1.398438 1.859375 -1.421875 C 1.960938 -1.441406 2.03125 -1.46875 2.0625 -1.5 C 2.144531 -1.570312 2.195312 -1.644531 2.21875 -1.71875 C 2.238281 -1.800781 2.253906 -1.914062 2.265625 -2.0625 C 2.285156 -2.207031 2.296875 -2.363281 2.296875 -2.53125 L 2.3125 -6.890625 L 2.34375 -11.03125 C 2.34375 -11.40625 2.304688 -11.664062 2.234375 -11.8125 C 2.191406 -11.90625 2.132812 -11.972656 2.0625 -12.015625 C 1.90625 -12.085938 1.660156 -12.15625 1.328125 -12.21875 L 1.328125 -12.234375 L 1.3125 -12.234375 C 1.289062 -12.234375 1.269531 -12.238281 1.25 -12.25 C 1.226562 -12.257812 1.203125 -12.265625 1.171875 -12.265625 C 1.148438 -12.265625 1.117188 -12.269531 1.078125 -12.28125 C 0.804688 -12.332031 0.613281 -12.460938 0.5 -12.671875 C 0.4375 -12.765625 0.394531 -12.851562 0.375 -12.9375 C 0.363281 -13.03125 0.359375 -13.132812 0.359375 -13.25 C 0.359375 -13.613281 0.488281 -13.878906 0.75 -14.046875 C 0.9375 -14.160156 1.179688 -14.21875 1.484375 -14.21875 C 2.359375 -14.21875 3.085938 -14.160156 3.671875 -14.046875 C 4.296875 -13.910156 4.847656 -13.648438 5.328125 -13.265625 C 5.804688 -12.890625 6.195312 -12.335938 6.5 -11.609375 L 9.703125 -4.40625 L 10.921875 -7.40625 L 13.5 -13.734375 L 13.625 -14.078125 L 15.21875 -14.078125 C 15.375 -14.078125 15.53125 -14.078125 15.6875 -14.078125 C 15.851562 -14.078125 16.019531 -14.082031 16.1875 -14.09375 C 16.351562 -14.101562 16.519531 -14.109375 16.6875 -14.109375 C 16.851562 -14.109375 17.023438 -14.109375 17.203125 -14.109375 C 17.378906 -14.117188 17.5625 -14.128906 17.75 -14.140625 L 17.78125 -14.140625 C 18.09375 -14.140625 18.332031 -14.019531 18.5 -13.78125 C 18.632812 -13.59375 18.703125 -13.378906 18.703125 -13.140625 L 18.703125 -13.09375 C 18.671875 -12.695312 18.523438 -12.425781 18.265625 -12.28125 C 18.171875 -12.21875 18.078125 -12.179688 17.984375 -12.171875 C 17.890625 -12.160156 17.769531 -12.15625 17.625 -12.15625 C 17.320312 -12.15625 17.125 -12.109375 17.03125 -12.015625 C 16.925781 -11.960938 16.867188 -11.882812 16.859375 -11.78125 C 16.835938 -11.726562 16.816406 -11.660156 16.796875 -11.578125 C 16.785156 -11.503906 16.773438 -11.421875 16.765625 -11.328125 C 16.765625 -11.234375 16.765625 -11.132812 16.765625 -11.03125 L 16.765625 -2.515625 C 16.773438 -2.203125 16.804688 -1.953125 16.859375 -1.765625 C 16.867188 -1.722656 16.882812 -1.675781 16.90625 -1.625 C 16.925781 -1.582031 16.96875 -1.539062 17.03125 -1.5 C 17.125 -1.425781 17.320312 -1.390625 17.625 -1.390625 L 17.75 -1.390625 C 18.007812 -1.390625 18.21875 -1.328125 18.375 -1.203125 C 18.5625 -1.054688 18.671875 -0.804688 18.703125 -0.453125 L 18.703125 -0.40625 C 18.703125 -0.164062 18.632812 0.046875 18.5 0.234375 C 18.445312 0.304688 18.378906 0.367188 18.296875 0.421875 C 18.222656 0.484375 18.140625 0.523438 18.046875 0.546875 C 17.953125 0.578125 17.863281 0.59375 17.78125 0.59375 L 17.75 0.59375 C 16.832031 0.550781 15.984375 0.53125 15.203125 0.53125 C 14.378906 0.53125 13.503906 0.550781 12.578125 0.59375 L 12.5625 0.59375 C 12.25 0.59375 12.003906 0.472656 11.828125 0.234375 C 11.703125 0.046875 11.640625 -0.164062 11.640625 -0.40625 L 11.640625 -0.453125 C 11.679688 -0.847656 11.804688 -1.113281 12.015625 -1.25 C 12.179688 -1.34375 12.410156 -1.390625 12.703125 -1.390625 C 13.003906 -1.390625 13.207031 -1.425781 13.3125 -1.5 C 13.40625 -1.570312 13.460938 -1.660156 13.484375 -1.765625 C 13.523438 -1.953125 13.550781 -2.203125 13.5625 -2.515625 L 13.5625 -8.4375 L 12.875 -6.734375 L 10.109375 0.078125 C 9.960938 0.453125 9.65625 0.640625 9.1875 0.640625 C 8.769531 0.640625 8.46875 0.484375 8.28125 0.171875 L 8.265625 0.15625 Z M 8.25 0.109375 "/></g></g></g><g fill="#00ae55" fill-opacity="1"><g transform="translate(119.76109, 20.056302)"><g><path d="M 0.578125 0.234375 C 0.503906 0.128906 0.453125 0.0234375 0.421875 -0.078125 C 0.398438 -0.179688 0.390625 -0.289062 0.390625 -0.40625 L 0.390625 -0.453125 C 0.390625 -0.453125 0.390625 -0.46875 0.390625 -0.5 C 0.410156 -0.863281 0.535156 -1.113281 0.765625 -1.25 C 0.929688 -1.34375 1.160156 -1.390625 1.453125 -1.390625 C 1.753906 -1.390625 1.957031 -1.425781 2.0625 -1.5 C 2.164062 -1.570312 2.222656 -1.660156 2.234375 -1.765625 C 2.273438 -1.953125 2.300781 -2.203125 2.3125 -2.515625 L 2.3125 -11.03125 C 2.300781 -11.34375 2.273438 -11.59375 2.234375 -11.78125 C 2.234375 -11.8125 2.222656 -11.84375 2.203125 -11.875 C 2.191406 -11.90625 2.175781 -11.929688 2.15625 -11.953125 C 2.132812 -11.984375 2.101562 -12.003906 2.0625 -12.015625 C 1.957031 -12.109375 1.753906 -12.15625 1.453125 -12.15625 L 1.328125 -12.15625 C 1.273438 -12.15625 1.222656 -12.15625 1.171875 -12.15625 C 1.128906 -12.164062 1.078125 -12.171875 1.015625 -12.171875 C 0.953125 -12.179688 0.890625 -12.203125 0.828125 -12.234375 C 0.773438 -12.265625 0.726562 -12.304688 0.6875 -12.359375 C 0.65625 -12.378906 0.625 -12.398438 0.59375 -12.421875 C 0.570312 -12.453125 0.550781 -12.476562 0.53125 -12.5 C 0.519531 -12.519531 0.503906 -12.546875 0.484375 -12.578125 C 0.472656 -12.609375 0.460938 -12.632812 0.453125 -12.65625 C 0.453125 -12.675781 0.445312 -12.703125 0.4375 -12.734375 C 0.425781 -12.773438 0.414062 -12.800781 0.40625 -12.8125 C 0.40625 -12.832031 0.40625 -12.859375 0.40625 -12.890625 C 0.40625 -12.929688 0.398438 -12.957031 0.390625 -12.96875 C 0.390625 -12.976562 0.390625 -13 0.390625 -13.03125 C 0.390625 -13.0625 0.390625 -13.082031 0.390625 -13.09375 L 0.390625 -13.140625 C 0.398438 -13.378906 0.460938 -13.59375 0.578125 -13.78125 C 0.648438 -13.894531 0.75 -13.984375 0.875 -14.046875 C 1.007812 -14.109375 1.144531 -14.140625 1.28125 -14.140625 L 1.3125 -14.140625 C 2.25 -14.097656 3.09375 -14.078125 3.84375 -14.078125 L 10.578125 -14.078125 C 10.734375 -14.078125 10.878906 -14.054688 11.015625 -14.015625 C 11.160156 -13.972656 11.289062 -13.894531 11.40625 -13.78125 C 11.582031 -13.59375 11.671875 -13.34375 11.671875 -13.03125 L 11.75 -10.03125 C 11.75 -9.695312 11.597656 -9.4375 11.296875 -9.25 C 11.078125 -9.125 10.851562 -9.0625 10.625 -9.0625 C 10.582031 -9.0625 10.539062 -9.0625 10.5 -9.0625 C 10.46875 -9.0625 10.429688 -9.0625 10.390625 -9.0625 C 10.347656 -9.070312 10.304688 -9.082031 10.265625 -9.09375 C 10.234375 -9.101562 10.195312 -9.113281 10.15625 -9.125 C 10.125 -9.132812 10.085938 -9.144531 10.046875 -9.15625 C 10.003906 -9.175781 9.96875 -9.191406 9.9375 -9.203125 C 9.65625 -9.347656 9.484375 -9.578125 9.421875 -9.890625 C 9.328125 -10.566406 9.210938 -11.070312 9.078125 -11.40625 C 8.984375 -11.65625 8.851562 -11.835938 8.6875 -11.953125 C 8.507812 -12.066406 8.234375 -12.132812 7.859375 -12.15625 L 5.515625 -12.15625 L 5.515625 -7.765625 L 8.953125 -7.765625 C 9.210938 -7.722656 9.410156 -7.585938 9.546875 -7.359375 C 9.660156 -7.171875 9.71875 -6.960938 9.71875 -6.734375 C 9.71875 -6.679688 9.710938 -6.628906 9.703125 -6.578125 C 9.703125 -6.523438 9.691406 -6.472656 9.671875 -6.421875 C 9.660156 -6.378906 9.644531 -6.332031 9.625 -6.28125 C 9.601562 -6.226562 9.578125 -6.179688 9.546875 -6.140625 C 9.484375 -6.023438 9.382812 -5.9375 9.25 -5.875 C 9.125 -5.8125 8.992188 -5.78125 8.859375 -5.78125 L 5.515625 -5.78125 L 5.515625 -2.28125 C 5.546875 -2.019531 5.578125 -1.8125 5.609375 -1.65625 C 5.617188 -1.613281 5.675781 -1.5625 5.78125 -1.5 C 5.894531 -1.414062 6.128906 -1.378906 6.484375 -1.390625 L 8.453125 -1.390625 C 8.671875 -1.410156 8.847656 -1.429688 8.984375 -1.453125 C 9.128906 -1.484375 9.238281 -1.519531 9.3125 -1.5625 C 9.488281 -1.664062 9.625 -1.828125 9.71875 -2.046875 C 9.78125 -2.171875 9.859375 -2.359375 9.953125 -2.609375 C 10.046875 -2.859375 10.140625 -3.15625 10.234375 -3.5 L 10.234375 -3.515625 L 10.265625 -3.546875 C 10.359375 -3.796875 10.523438 -3.972656 10.765625 -4.078125 C 11.015625 -4.191406 11.285156 -4.226562 11.578125 -4.1875 L 11.59375 -4.1875 C 11.707031 -4.15625 11.8125 -4.113281 11.90625 -4.0625 C 12.007812 -4.019531 12.101562 -3.96875 12.1875 -3.90625 C 12.300781 -3.800781 12.390625 -3.675781 12.453125 -3.53125 C 12.523438 -3.394531 12.550781 -3.25 12.53125 -3.09375 L 12.53125 -3.0625 L 12.109375 -0.359375 L 12.109375 -0.34375 L 12.09375 -0.328125 C 12.0625 -0.179688 12.015625 -0.0507812 11.953125 0.0625 C 11.898438 0.175781 11.804688 0.273438 11.671875 0.359375 C 11.503906 0.472656 11.265625 0.53125 10.953125 0.53125 L 3.859375 0.53125 C 3.472656 0.53125 3.066406 0.535156 2.640625 0.546875 C 2.222656 0.554688 1.78125 0.570312 1.3125 0.59375 L 1.28125 0.59375 C 0.988281 0.59375 0.753906 0.472656 0.578125 0.234375 Z M 0.578125 0.234375 "/></g></g></g><g fill="#00ae55" fill-opacity="1"><g transform="translate(133.053253, 20.056302)"><g><path d="M 0.5625 0.234375 C 0.488281 0.128906 0.4375 0.0234375 0.40625 -0.078125 C 0.375 -0.179688 0.359375 -0.289062 0.359375 -0.40625 L 0.359375 -0.453125 C 0.390625 -0.847656 0.535156 -1.117188 0.796875 -1.265625 C 0.953125 -1.347656 1.164062 -1.390625 1.4375 -1.390625 C 1.738281 -1.390625 1.941406 -1.425781 2.046875 -1.5 C 2.140625 -1.582031 2.203125 -1.671875 2.234375 -1.765625 C 2.242188 -1.847656 2.257812 -1.953125 2.28125 -2.078125 C 2.300781 -2.210938 2.3125 -2.359375 2.3125 -2.515625 L 2.3125 -11.03125 C 2.300781 -11.207031 2.285156 -11.351562 2.265625 -11.46875 C 2.253906 -11.59375 2.242188 -11.695312 2.234375 -11.78125 C 2.203125 -11.875 2.140625 -11.953125 2.046875 -12.015625 C 1.941406 -12.109375 1.738281 -12.15625 1.4375 -12.15625 L 1.3125 -12.15625 C 1.050781 -12.15625 0.84375 -12.21875 0.6875 -12.34375 C 0.601562 -12.414062 0.535156 -12.503906 0.484375 -12.609375 C 0.429688 -12.722656 0.398438 -12.800781 0.390625 -12.84375 C 0.390625 -12.894531 0.378906 -12.976562 0.359375 -13.09375 L 0.359375 -13.140625 C 0.359375 -13.191406 0.363281 -13.242188 0.375 -13.296875 C 0.382812 -13.359375 0.394531 -13.414062 0.40625 -13.46875 C 0.414062 -13.519531 0.4375 -13.570312 0.46875 -13.625 C 0.5 -13.675781 0.53125 -13.726562 0.5625 -13.78125 C 0.613281 -13.851562 0.675781 -13.914062 0.75 -13.96875 C 0.832031 -14.03125 0.921875 -14.070312 1.015625 -14.09375 C 1.109375 -14.125 1.195312 -14.140625 1.28125 -14.140625 L 1.3125 -14.140625 C 1.539062 -14.128906 1.765625 -14.117188 1.984375 -14.109375 C 2.203125 -14.109375 2.421875 -14.101562 2.640625 -14.09375 C 2.859375 -14.082031 3.066406 -14.078125 3.265625 -14.078125 C 3.460938 -14.078125 3.65625 -14.078125 3.84375 -14.078125 C 4.6875 -14.078125 5.570312 -14.097656 6.5 -14.140625 L 6.53125 -14.140625 C 6.613281 -14.140625 6.703125 -14.125 6.796875 -14.09375 C 6.890625 -14.070312 6.972656 -14.03125 7.046875 -13.96875 C 7.128906 -13.914062 7.195312 -13.851562 7.25 -13.78125 C 7.320312 -13.675781 7.375 -13.570312 7.40625 -13.46875 C 7.4375 -13.363281 7.453125 -13.253906 7.453125 -13.140625 L 7.453125 -13.09375 C 7.421875 -12.695312 7.273438 -12.425781 7.015625 -12.28125 C 6.921875 -12.21875 6.820312 -12.179688 6.71875 -12.171875 C 6.613281 -12.160156 6.492188 -12.15625 6.359375 -12.15625 C 6.054688 -12.15625 5.851562 -12.109375 5.75 -12.015625 C 5.65625 -11.960938 5.597656 -11.882812 5.578125 -11.78125 C 5.535156 -11.59375 5.507812 -11.34375 5.5 -11.03125 L 5.5 -2.515625 C 5.507812 -2.335938 5.515625 -2.1875 5.515625 -2.0625 C 5.523438 -1.945312 5.546875 -1.847656 5.578125 -1.765625 C 5.597656 -1.722656 5.617188 -1.675781 5.640625 -1.625 C 5.660156 -1.582031 5.695312 -1.539062 5.75 -1.5 C 5.851562 -1.425781 6.054688 -1.390625 6.359375 -1.390625 L 6.484375 -1.390625 C 6.609375 -1.390625 6.722656 -1.378906 6.828125 -1.359375 C 6.929688 -1.335938 7.03125 -1.285156 7.125 -1.203125 C 7.3125 -1.054688 7.421875 -0.804688 7.453125 -0.453125 L 7.453125 -0.40625 C 7.453125 -0.164062 7.382812 0.046875 7.25 0.234375 C 7.195312 0.304688 7.128906 0.367188 7.046875 0.421875 C 6.972656 0.484375 6.890625 0.523438 6.796875 0.546875 C 6.703125 0.578125 6.613281 0.59375 6.53125 0.59375 L 6.5 0.59375 C 5.582031 0.550781 4.703125 0.53125 3.859375 0.53125 C 3.085938 0.53125 2.238281 0.550781 1.3125 0.59375 L 1.28125 0.59375 C 0.96875 0.59375 0.726562 0.472656 0.5625 0.234375 Z M 0.5625 0.234375 "/></g></g></g></g></g></svg>